<?xml version="1.0" encoding="UTF-8"?>
<svg xmlns="http://www.w3.org/2000/svg" xmlns:xlink="http://www.w3.org/1999/xlink" width="40px" height="40px" viewBox="0 0 40 20" version="1.1">
<g id="surface1">
<path style=" stroke:none;fill-rule:nonzero;fill:rgb(0%,67.45098%,84.313725%);fill-opacity:1;" d="M 3.019531 7.148438 C 2.964844 7.148438 2.90625 7.09375 2.964844 7.035156 L 3.347656 6.488281 C 3.402344 6.433594 3.457031 6.378906 3.566406 6.378906 L 10.480469 6.378906 C 10.535156 6.378906 10.589844 6.433594 10.535156 6.488281 L 10.207031 6.980469 C 10.152344 7.035156 10.097656 7.09375 9.984375 7.09375 Z M 0.109375 8.902344 C 0.0546875 8.902344 0 8.847656 0.0546875 8.792969 L 0.4375 8.246094 C 0.492188 8.1875 0.546875 8.132812 0.660156 8.132812 L 9.492188 8.132812 C 9.546875 8.132812 9.601562 8.1875 9.601562 8.246094 L 9.4375 8.792969 C 9.4375 8.847656 9.328125 8.902344 9.273438 8.902344 Z M 4.773438 10.714844 C 4.71875 10.714844 4.664062 10.660156 4.71875 10.605469 L 4.992188 10.109375 C 5.046875 10.054688 5.101562 10 5.210938 10 L 9.054688 10 C 9.109375 10 9.164062 10.054688 9.164062 10.109375 L 9.109375 10.546875 C 9.109375 10.605469 9.054688 10.660156 9 10.660156 Z M 24.855469 6.761719 L 21.617188 7.585938 C 21.34375 7.640625 21.289062 7.695312 21.070312 7.367188 C 20.796875 7.035156 20.574219 6.816406 20.136719 6.652344 C 18.929688 6.050781 17.722656 6.214844 16.625 6.925781 C 15.308594 7.75 14.648438 9.011719 14.648438 10.605469 C 14.648438 12.140625 15.746094 13.402344 17.285156 13.621094 C 18.601562 13.785156 19.699219 13.347656 20.574219 12.359375 C 20.742188 12.140625 20.90625 11.921875 21.125 11.644531 L 17.394531 11.644531 C 17.007812 11.644531 16.898438 11.371094 17.007812 11.042969 C 17.285156 10.4375 17.722656 9.453125 17.996094 8.957031 C 18.050781 8.847656 18.214844 8.628906 18.492188 8.628906 L 25.515625 8.628906 C 25.460938 9.175781 25.460938 9.671875 25.40625 10.21875 C 25.183594 11.589844 24.691406 12.90625 23.8125 14.003906 C 22.441406 15.816406 20.632812 16.96875 18.328125 17.296875 C 16.40625 17.570312 14.648438 17.1875 13.113281 16.035156 C 11.6875 14.9375 10.863281 13.511719 10.644531 11.753906 C 10.371094 9.671875 11.027344 7.75 12.289062 6.105469 C 13.664062 4.292969 15.472656 3.140625 17.722656 2.757812 C 19.535156 2.429688 21.289062 2.648438 22.824219 3.691406 C 23.867188 4.347656 24.582031 5.28125 25.074219 6.433594 C 25.128906 6.652344 25.074219 6.707031 24.855469 6.761719 Z M 24.855469 6.761719 "/>
<path style=" stroke:none;fill-rule:nonzero;fill:rgb(0%,67.45098%,84.313725%);fill-opacity:1;" d="M 31.222656 17.460938 C 29.464844 17.40625 27.875 16.914062 26.503906 15.761719 C 25.351562 14.773438 24.636719 13.511719 24.417969 12.03125 C 24.085938 9.835938 24.691406 7.914062 26.007812 6.214844 C 27.433594 4.347656 29.136719 3.414062 31.441406 2.976562 C 33.414062 2.648438 35.28125 2.8125 36.925781 3.964844 C 38.464844 5.007812 39.394531 6.433594 39.671875 8.300781 C 40 10.933594 39.230469 13.019531 37.476562 14.828125 C 36.214844 16.144531 34.621094 16.914062 32.867188 17.296875 C 32.261719 17.40625 31.714844 17.40625 31.222656 17.460938 Z M 35.828125 9.671875 C 35.828125 9.394531 35.828125 9.230469 35.773438 9.011719 C 35.445312 7.09375 33.691406 5.996094 31.824219 6.433594 C 30.015625 6.816406 28.863281 7.96875 28.421875 9.78125 C 28.09375 11.261719 28.804688 12.796875 30.179688 13.457031 C 31.222656 13.894531 32.316406 13.839844 33.304688 13.347656 C 34.898438 12.578125 35.71875 11.316406 35.828125 9.671875 Z M 35.828125 9.671875 "/>
</g>
</svg>
